<?xml version="1.0" encoding="UTF-8" standalone="no"?>
<svg id="logo" data-name="logo" xmlns="http://www.w3.org/2000/svg" viewBox="0 0 1455 518.2" width="1455px" height="518.2px"><defs><style>.cls-2{fill:#163152}.cls-3{fill:#fff}</style></defs><path fill="#0a72b8" d="M1455 0H784L1005 518.2h450V0z"/><path class="cls-2" d="M269.7 789a13.3 13.3 0 0 1-9.7 3.6h-13.2v-37.5H260c4 0 7.3 1.2 9.7 3.5 4 4 3.8 9.6 3.8 15s.3 11.4-3.8 15.5zm-3.9-26.2a8.1 8.1 0 0 0-6.4-2.6h-6.9v27.3h7a8.1 8.1 0 0 0 6.3-2.5c2-2.2 2-6.2 2-11.4s0-8.7-2-10.8zM282 792.6v-37.5h24v5.1h-18.2v11h15.6v5h-15.7v11.3H306v5.1zM326 792.6h-4.4l-12.3-37.5h5.9l8.6 27.3 8.7-27.3h6zM343.7 792.6v-37.5h24v5.1h-18.3v11H365v5h-15.6v11.3h18.3v5.1zM375.6 792.6v-37.5h5.7v32.4h18v5.1zM426.6 789a13.5 13.5 0 0 1-10 4 13.4 13.4 0 0 1-9.8-4c-3.7-3.8-3.6-8-3.6-15.1s0-11.4 3.6-15.1a13.4 13.4 0 0 1 9.9-4 13.5 13.5 0 0 1 9.9 4c3.7 3.7 3.6 7.8 3.6 15s0 11.5-3.6 15.1zm-4.3-26.8a8 8 0 0 0-11.2 0c-1.9 2-2.3 4.1-2.3 11.7s.4 9.6 2.3 11.6a7.9 7.9 0 0 0 11.2 0c1.8-2 2.1-4.1 2.1-11.6s-.3-9.7-2.1-11.7zM452.9 777.9h-8.5v14.7h-5.7v-37.5h14.2c7.3 0 12 4.9 12 11.4s-4.7 11.4-12 11.4zm-.3-17.7h-8.2v12.5h8.2c4 0 6.6-2.3 6.6-6.2s-2.6-6.3-6.6-6.3zM471.9 792.6v-37.5h24v5.1h-18.3v11h15.6v5h-15.6v11.3H496v5.1zM526.6 789a13.3 13.3 0 0 1-9.7 3.6h-13.1v-37.5H517c4 0 7.3 1.2 9.7 3.5 4 4 3.8 9.6 3.8 15s.2 11.4-3.9 15.5zm-3.8-26.2a8 8 0 0 0-6.5-2.6h-6.8v27.3h6.8a8 8 0 0 0 6.5-2.5c1.9-2.2 2-6.2 2-11.4s-.1-8.7-2-10.8zM582.3 792.6h-5l-7.7-26.3-7.6 26.3h-4.9l-9.8-37.5h6L560 782l7.5-26.8h4.6l7.5 26.8 6.6-26.8h6zM597.6 792.6v-37.5h5.8v37.5zM625.9 760.2v32.4h-5.7v-32.4H610v-5h26.3v5zM663.7 792.6v-16.4h-15.2v16.4h-5.7v-37.5h5.7v16h15.2v-16h5.7v37.5zM714.8 789a13.2 13.2 0 0 1-9.6 3.6H692v-37.5h13.2c3.9 0 7.3 1.2 9.6 3.5 4.1 4 3.8 9.6 3.8 15s.3 11.4-3.8 15.5zm-3.9-26.2a8 8 0 0 0-6.3-2.6h-7v27.3h7a8 8 0 0 0 6.3-2.5c2-2.2 2-6.2 2-11.4s0-8.7-2-10.8zM727.2 792.6v-37.5h24v5.1h-18.3v11h15.6v5h-15.6v11.3H751v5.1zM779.7 792.6l-7.9-15.8h-7v15.8H759v-37.5h14.5c7.1 0 11.6 4.6 11.6 11a10 10 0 0 1-7.5 10l8.7 16.5zm-6.5-32.4h-8.5V772h8.5c3.7 0 6.3-2.2 6.3-5.8s-2.6-6-6.3-6zM821 792.6v-25l-8.6 18.2h-4.2l-8.8-18.3v25.1h-5.8v-37.5h5.8l11 23.3 10.7-23.3h5.7v37.5zM858.2 792.6l-2.6-7.5h-14.8l-2.6 7.5h-6l13.7-37.5h4.6l13.8 37.5zm-9.9-29l-5.9 16.7H854zM879.2 760.2v32.4h-5.7v-32.4h-10.3v-5h26.3v5zM917 789a14.2 14.2 0 0 1-19.7 0c-3.7-3.8-3.7-8-3.7-15.1s0-11.4 3.7-15.1a14.2 14.2 0 0 1 19.7 0c3.7 3.7 3.6 7.8 3.6 15s.1 11.5-3.6 15.1zm-4.3-26.8a8 8 0 0 0-11.2 0c-1.8 2-2.2 4.1-2.2 11.7s.4 9.6 2.2 11.6a7.9 7.9 0 0 0 11.2 0c1.9-2 2.2-4.1 2.2-11.6s-.3-9.7-2.2-11.7zM929.1 792.6v-37.5h5.7v32.4H953v5.1zM980.1 789a14.2 14.2 0 0 1-19.7 0c-3.7-3.8-3.7-8-3.7-15.1s0-11.4 3.7-15.1a14.2 14.2 0 0 1 19.7 0c3.7 3.7 3.6 7.8 3.6 15s.1 11.5-3.6 15.1zm-4.3-26.8a7.9 7.9 0 0 0-11.1 0c-1.9 2-2.3 4.1-2.3 11.7s.4 9.6 2.3 11.6a7.8 7.8 0 0 0 11.1 0c1.9-2 2.2-4.1 2.2-11.6s-.3-9.7-2.2-11.7zM1014.7 788.7a14.4 14.4 0 0 1-20.2.2c-3.7-3.7-3.6-7.8-3.6-15s0-11.4 3.6-15.1a13.4 13.4 0 0 1 9.9-4c8 0 12.6 5.2 13.6 11.6h-5.7c-1-4-3.7-6.5-8-6.5a7.6 7.6 0 0 0-5.5 2.3c-1.8 2-2.2 4.1-2.2 11.6s.4 9.8 2.2 11.7a7.5 7.5 0 0 0 5.6 2.3 8 8 0 0 0 6-2.6 8.4 8.4 0 0 0 2-5.9v-2.1h-8v-4.9h13.7v5.7c0 5-.9 8-3.4 10.7zM1026.6 792.6v-37.5h5.7v37.5zM1052 793c-5.6 0-9.7-1.4-13.3-5l3.8-3.8c2.8 2.8 5.8 3.6 9.6 3.6 4.9 0 7.7-2 7.7-5.7a5 5 0 0 0-1.4-4c-1-.8-1.9-1.2-4.1-1.5l-4.5-.6a12.7 12.7 0 0 1-7-3 9.3 9.3 0 0 1-2.8-7.2c0-6.5 4.7-11 12.5-11 5 0 8.5 1.2 11.7 4.3l-3.6 3.6a11 11 0 0 0-8.2-3c-4.5 0-6.9 2.6-6.9 5.9a4.6 4.6 0 0 0 1.4 3.5 8.5 8.5 0 0 0 4.3 1.7l4.2.6c3.5.6 5.5 1.4 7 2.8a9.8 9.8 0 0 1 3 7.7c.1 7-5.5 11-13.4 11zM1086 760.2v32.4h-5.7v-32.4h-10.4v-5h26.4v5zM1112.8 793c-5.6 0-9.7-1.4-13.3-5l3.8-3.8c2.8 2.8 5.8 3.6 9.6 3.6 5 0 7.8-2 7.8-5.7a5.2 5.2 0 0 0-1.5-4c-1-.8-1.9-1.2-4.1-1.5l-4.4-.6a13 13 0 0 1-7.2-3 9.4 9.4 0 0 1-2.7-7.2c0-6.5 4.7-11 12.5-11 5 0 8.5 1.2 11.7 4.3l-3.6 3.6a11 11 0 0 0-8.2-3c-4.4 0-6.9 2.6-6.9 5.9a4.5 4.5 0 0 0 1.5 3.5 8.1 8.1 0 0 0 4.2 1.7l4.2.6c3.5.6 5.5 1.4 7 2.8a9.7 9.7 0 0 1 3.1 7.7c0 7-5.6 11-13.5 11zM494.5 631.4c-28 26.8-55.8 44.6-99.8 44.6-67.9 0-119.1-54.9-119.1-127.7 0-72.3 51.2-126.8 119.1-126.8 36.8 0 65.8 12.7 97.1 42.4l2 2 28.2-30.2-2-2c-28-26.3-62.4-50.7-124.8-50.7-92.5 0-162.2 71.5-162.2 166.2 0 94.3 69.1 165.3 160.8 165.3 64 0 100.6-28.4 128-56.1l2-2-27.4-26.9zM640.1 465.9c-65.3 0-114.4 53.4-114.4 124.3s51 124.3 118.9 124.3c40.1 0 70.3-13.7 98-44.6l1.9-2-25.8-23.1-1.9 2c-20.8 21.8-43.4 32-71.3 32-41.9 0-73.2-29.3-78.7-73.2h183.9l.2-2.5a102 102 0 0 0 .5-11c0-75.5-44.7-126.2-111.3-126.2m-73.3 108.4c5.4-43.5 34.9-73.6 72.4-73.6 46.6 0 67.2 37.5 71.2 73.6zM904 509.7V467l-2.7-.1c-38.4-1.6-72.1 19.1-92.2 55.6v-51.6h-40.3V709h40.3v-95.5c0-63.1 35.1-103.9 89.4-103.9zM992.7 467.7h-72.4v36.2h70.3c42 .6 65 22 65 60.6v4.4c-17.6-4.8-38.4-9-68.7-9-64.1 0-102.4 29.3-102.4 78.4 0 52 46.5 75.8 89.7 75.8 40.5 0 66.2-17.9 81.4-35v30h39v-145c0-62.2-36.2-96.4-101.9-96.4M981 681c-26.8 0-55.7-13.8-55.7-44 0-28.7 24.3-45.8 65.2-45.8a240.6 240.6 0 0 1 65.5 9.2v20.4c0 34.3-32.3 60.2-75 60.2" transform="translate(-233 -281.4)"/><path class="cls-3" d="M1465 465.9c-65.2 0-114.4 53.4-114.4 124.3s51.2 124.3 119 124.3c40 0 70.3-13.7 98-44.6l1.8-2-25.7-23.1-1.9 2c-20.8 21.8-43.4 32-71.3 32-41.9 0-73.2-29.3-78.8-73.2h184l.2-2.5a97.6 97.6 0 0 0 .5-11c0-75.5-44.7-126.2-111.3-126.2m70.3 108.5h-143.7c5.5-43.5 35-73.7 72.4-73.7 46.6 0 67.3 37.5 71.2 73.7" transform="translate(-233 -281.4)"/><path class="cls-3" d="M1131.5 107L1021 374 910.7 107h-45.8l138 323h35.1l138-323h-44.5z"/></svg>